
<!-- 1132 1075 -->
<svg  viewBox="0 0 1200 1460" fill="none" xmlns="http://www.w3.org/2000/svg">
<mask id="path-1-inside-1_300_371" fill="white">
<path fill-rule="evenodd" clip-rule="evenodd" d="M818.115 155.367C813.511 156.214 808.765 156.657 803.916 156.657C798.339 156.657 792.9 156.072 787.654 154.959C785.335 164.113 782.018 176.828 777.758 192.227C768.69 225.005 755.347 269.948 738.248 318.606C721.15 367.262 700.293 419.641 676.197 467.289C652.103 514.931 624.755 557.873 594.663 587.632C564.571 617.392 535.409 632.38 508.116 637.753C480.824 643.125 455.445 638.874 432.932 630.224C397.916 616.772 369.747 592.628 352.097 577.5L352.097 577.499L352.09 577.494L352.088 577.492C347.072 573.192 342.905 569.621 339.673 567.232C324.95 556.347 259.421 497.87 197.609 442.148C166.695 414.28 136.7 387.091 114.433 366.869C111.28 364.006 108.283 361.283 105.459 358.717C100.071 360.748 94.398 362.199 88.5171 362.995L326.389 1074.16L325.441 1074.47L87.5061 363.125C84.3791 363.507 81.1949 363.703 77.9648 363.703C34.906 363.703 0 328.797 0 285.738C0 242.68 34.906 207.773 77.9648 207.773C121.024 207.773 155.93 242.68 155.93 285.738C155.93 318.724 135.445 346.925 106.504 358.315C109.218 360.781 112.091 363.391 115.105 366.129C137.371 386.35 167.366 413.538 198.279 441.406C260.121 497.155 325.595 555.581 340.268 566.428C343.564 568.864 347.785 572.481 352.85 576.822C370.519 591.964 398.465 615.912 433.29 629.291C455.67 637.889 480.855 642.1 507.923 636.772C534.989 631.444 563.981 616.568 593.96 586.921C623.94 557.272 651.23 514.44 675.304 466.838C699.375 419.242 720.215 366.906 737.305 318.274C754.394 269.643 767.73 224.723 776.794 191.961C781.047 176.587 784.359 163.891 786.677 154.745C751.914 146.898 725.951 115.827 725.951 78.6924C725.951 35.6336 760.857 0.727539 803.916 0.727539C846.975 0.727539 881.881 35.6336 881.881 78.6924C881.881 116.556 854.89 148.115 819.099 155.18C819.833 158.269 820.607 161.498 821.42 164.856C829.086 196.544 840.187 239.791 853.922 286.031C867.658 332.273 884.027 381.502 902.23 425.154C920.437 468.817 940.462 506.857 961.495 530.756C1003.68 578.691 1034.29 608.644 1065.81 622.973C1097.29 637.28 1129.74 636.036 1175.69 621.357C1198.6 614.038 1230.17 593.164 1264.68 565.903C1299.17 538.656 1336.54 505.077 1371.04 472.41C1405.54 439.744 1437.17 407.996 1460.17 384.414C1471.67 372.623 1481.02 362.874 1487.49 356.073C1488.04 355.494 1488.57 354.937 1489.07 354.402C1464.66 341.233 1448.07 315.423 1448.07 285.738C1448.07 242.68 1482.98 207.773 1526.04 207.773C1569.09 207.773 1604 242.68 1604 285.738C1604 328.797 1569.09 363.703 1526.04 363.703C1521.41 363.703 1516.88 363.3 1512.47 362.528L1275.96 1074.47L1275.01 1074.16L1511.48 362.347C1503.87 360.909 1496.65 358.366 1489.99 354.889C1489.42 355.486 1488.83 356.11 1488.21 356.762C1481.74 363.566 1472.39 373.318 1460.89 385.112C1437.88 408.701 1406.24 440.459 1371.73 473.136C1337.22 505.813 1299.82 539.415 1265.3 566.688C1230.79 593.946 1199.09 614.93 1175.99 622.309C1129.92 637.026 1097.19 638.335 1065.4 623.883C1033.65 609.453 1002.91 579.335 960.744 531.417C939.599 507.39 919.524 469.224 901.307 425.538C883.085 381.841 866.705 332.576 852.964 286.316C839.222 240.055 828.117 196.79 820.448 165.092C819.631 161.716 818.853 158.471 818.115 155.367ZM1133.43 320.242C1164.01 319.686 1188.62 294.727 1188.62 264.018C1188.62 232.961 1163.45 207.785 1132.39 207.785C1101.33 207.785 1076.16 232.961 1076.16 264.018C1076.16 289.65 1093.31 311.277 1116.76 318.05C1084.19 374.492 1011.03 500.108 998.18 511.957C981.555 527.286 1105.54 679.383 1195.01 572.034C1163.85 488.326 1139.07 381.194 1133.43 320.242ZM525.296 264.018C525.296 288.839 509.214 309.905 486.902 317.363C506.949 352.478 560.121 443.984 608.367 515.79C539.352 646.156 446.046 612.927 406.427 569.476C437.578 532.488 457.603 387.279 465.381 320.133C436.04 318.237 412.829 293.838 412.829 264.018C412.829 232.961 438.006 207.785 469.063 207.785C500.119 207.785 525.296 232.961 525.296 264.018Z"/>
</mask>
<path d="M818.115 155.367L819.088 155.136L818.869 154.212L817.934 154.384L818.115 155.367ZM787.654 154.959L787.862 153.981L786.921 153.781L786.685 154.713L787.654 154.959ZM777.758 192.227L776.794 191.961L777.758 192.227ZM738.248 318.606L737.305 318.274L738.248 318.606ZM676.197 467.289L675.304 466.838L676.197 467.289ZM594.663 587.632L595.366 588.343L594.663 587.632ZM508.116 637.753L508.309 638.734L508.116 637.753ZM432.932 630.224L433.29 629.291H433.29L432.932 630.224ZM352.097 577.5L351.447 578.259L352.097 577.5ZM352.097 577.499L351.44 578.254L351.446 578.258L352.097 577.499ZM352.09 577.494L352.747 576.739L352.739 576.732L352.731 576.725L352.09 577.494ZM352.088 577.492L351.437 578.251L351.448 578.26L352.088 577.492ZM339.673 567.232L339.079 568.036L339.673 567.232ZM197.609 442.148L196.94 442.891L197.609 442.148ZM114.433 366.869L115.105 366.129L114.433 366.869ZM105.459 358.717L106.132 357.977L105.679 357.565L105.107 357.781L105.459 358.717ZM88.5171 362.995L88.383 362.004L87.1853 362.166L87.5687 363.312L88.5171 362.995ZM326.389 1074.16L326.706 1075.1L327.655 1074.79L327.337 1073.84L326.389 1074.16ZM325.441 1074.47L324.492 1074.79L324.81 1075.74L325.758 1075.42L325.441 1074.47ZM87.5061 363.125L88.4545 362.808L88.1955 362.034L87.385 362.133L87.5061 363.125ZM106.504 358.315L106.137 357.384L104.641 357.973L105.831 359.055L106.504 358.315ZM115.105 366.129L115.778 365.388L115.105 366.129ZM198.279 441.406L198.948 440.663L198.279 441.406ZM340.268 566.428L339.673 567.232L340.268 566.428ZM352.85 576.822L352.199 577.581L352.85 576.822ZM433.29 629.291L433.649 628.357L433.29 629.291ZM507.923 636.772L507.73 635.791L507.923 636.772ZM593.96 586.921L594.663 587.632L593.96 586.921ZM675.304 466.838L674.412 466.387L675.304 466.838ZM737.305 318.274L738.248 318.606L737.305 318.274ZM776.794 191.961L777.758 192.227L776.794 191.961ZM786.677 154.745L787.646 154.99L787.899 153.995L786.897 153.769L786.677 154.745ZM819.099 155.18L818.905 154.199L817.885 154.4L818.126 155.411L819.099 155.18ZM821.42 164.856L822.392 164.621V164.621L821.42 164.856ZM853.922 286.031L852.963 286.316L853.922 286.031ZM902.23 425.154L901.307 425.538L902.23 425.154ZM961.495 530.756L962.245 530.095L961.495 530.756ZM1065.81 622.973L1066.23 622.062L1065.81 622.973ZM1175.69 621.357L1175.99 622.309L1175.69 621.357ZM1264.68 565.903L1264.06 565.118L1264.68 565.903ZM1371.04 472.41L1371.73 473.136L1371.04 472.41ZM1460.17 384.414L1460.89 385.112L1460.17 384.414ZM1487.49 356.073L1488.21 356.762L1487.49 356.073ZM1489.07 354.402L1489.8 355.091L1490.7 354.143L1489.55 353.522L1489.07 354.402ZM1512.47 362.528L1512.65 361.543L1511.8 361.394L1511.52 362.213L1512.47 362.528ZM1275.96 1074.47L1275.64 1075.42L1276.59 1075.74L1276.91 1074.79L1275.96 1074.47ZM1275.01 1074.16L1274.06 1073.84L1273.74 1074.79L1274.69 1075.11L1275.01 1074.16ZM1511.48 362.347L1512.43 362.662L1512.79 361.577L1511.67 361.364L1511.48 362.347ZM1489.99 354.889L1490.45 354.002L1489.78 353.653L1489.27 354.2L1489.99 354.889ZM1488.21 356.762L1487.49 356.073L1487.49 356.073L1488.21 356.762ZM1460.89 385.112L1460.17 384.414L1460.89 385.112ZM1371.73 473.136L1371.04 472.41L1371.73 473.136ZM1265.3 566.688L1264.68 565.903L1265.3 566.688ZM1175.99 622.309L1175.69 621.357L1175.99 622.309ZM1065.4 623.883L1065.81 622.973L1065.4 623.883ZM960.744 531.417L959.993 532.077L960.744 531.417ZM901.307 425.538L900.384 425.923L901.307 425.538ZM852.964 286.316L853.922 286.031L852.964 286.316ZM820.448 165.092L821.42 164.856V164.856L820.448 165.092ZM1133.43 320.242L1133.41 319.242L1132.34 319.262L1132.44 320.334L1133.43 320.242ZM1116.76 318.05L1117.62 318.55L1118.26 317.444L1117.03 317.089L1116.76 318.05ZM998.18 511.957L997.502 511.222L998.18 511.957ZM1195.01 572.034L1195.78 572.674L1196.15 572.228L1195.95 571.685L1195.01 572.034ZM486.902 317.363L486.585 316.415L485.43 316.801L486.034 317.859L486.902 317.363ZM608.367 515.79L609.251 516.258L609.531 515.729L609.197 515.232L608.367 515.79ZM406.427 569.476L405.662 568.831L405.098 569.502L405.688 570.149L406.427 569.476ZM465.381 320.133L466.374 320.248L466.496 319.203L465.446 319.135L465.381 320.133ZM803.916 157.657C808.826 157.657 813.633 157.209 818.296 156.351L817.934 154.384C813.39 155.22 808.704 155.657 803.916 155.657V157.657ZM787.447 155.937C792.76 157.064 798.269 157.657 803.916 157.657V155.657C798.41 155.657 793.039 155.079 787.862 153.981L787.447 155.937ZM778.721 192.494C782.984 177.087 786.303 164.365 788.624 155.204L786.685 154.713C784.367 163.861 781.052 176.569 776.794 191.961L778.721 192.494ZM739.192 318.937C756.3 270.253 769.649 225.287 778.721 192.494L776.794 191.961C767.73 224.723 754.394 269.643 737.305 318.274L739.192 318.937ZM677.089 467.741C701.212 420.041 722.085 367.618 739.192 318.937L737.305 318.274C720.215 366.906 699.375 419.242 675.304 466.838L677.089 467.741ZM595.366 588.343C625.569 558.474 652.975 515.423 677.089 467.741L675.304 466.838C651.23 514.44 623.94 557.272 593.96 586.921L595.366 588.343ZM508.309 638.734C535.828 633.317 565.16 618.215 595.366 588.343L593.96 586.921C563.981 616.568 534.989 631.444 507.923 636.772L508.309 638.734ZM432.573 631.158C455.221 639.859 480.794 644.151 508.309 638.734L507.923 636.772C480.855 642.1 455.67 637.889 433.29 629.291L432.573 631.158ZM351.447 578.259C369.087 593.379 397.375 617.636 432.573 631.158L433.29 629.291C398.456 615.908 370.407 591.876 352.748 576.74L351.447 578.259ZM351.446 578.258L351.447 578.259L352.748 576.74L352.747 576.74L351.446 578.258ZM351.434 578.248L351.44 578.254L352.753 576.745L352.747 576.739L351.434 578.248ZM351.448 578.26L351.45 578.262L352.731 576.725L352.728 576.724L351.448 578.26ZM339.079 568.036C342.275 570.399 346.409 573.941 351.437 578.251L352.739 576.732C347.734 572.443 343.536 568.844 340.268 566.428L339.079 568.036ZM196.94 442.891C258.722 498.586 324.304 557.114 339.079 568.036L340.268 566.428C325.595 555.581 260.121 497.155 198.279 441.406L196.94 442.891ZM113.761 367.609C136.028 387.832 166.024 415.022 196.94 442.891L198.279 441.406C167.366 413.538 137.372 386.35 115.105 366.129L113.761 367.609ZM104.787 359.457C107.61 362.023 110.608 364.746 113.761 367.609L115.105 366.129C111.953 363.266 108.955 360.543 106.132 357.977L104.787 359.457ZM88.6511 363.986C94.6077 363.18 100.354 361.71 105.812 359.653L105.107 357.781C99.7879 359.786 94.1884 361.219 88.383 362.004L88.6511 363.986ZM327.337 1073.84L89.4654 362.678L87.5687 363.312L325.441 1074.47L327.337 1073.84ZM325.758 1075.42L326.706 1075.1L326.072 1073.21L325.123 1073.52L325.758 1075.42ZM86.5578 363.442L324.492 1074.79L326.389 1074.16L88.4545 362.808L86.5578 363.442ZM77.9648 364.703C81.2355 364.703 84.4601 364.504 87.6272 364.118L87.385 362.133C84.298 362.509 81.1543 362.703 77.9648 362.703V364.703ZM-1 285.738C-1 329.349 34.3537 364.703 77.9648 364.703V362.703C35.4583 362.703 1 328.245 1 285.738H-1ZM77.9648 206.773C34.3537 206.773 -1 242.127 -1 285.738H1C1 243.232 35.4583 208.773 77.9648 208.773V206.773ZM156.93 285.738C156.93 242.127 121.576 206.773 77.9648 206.773V208.773C120.471 208.773 154.93 243.232 154.93 285.738H156.93ZM106.87 359.245C136.181 347.71 156.93 319.148 156.93 285.738H154.93C154.93 318.299 134.71 346.14 106.137 357.384L106.87 359.245ZM115.778 365.388C112.763 362.651 109.89 360.041 107.176 357.574L105.831 359.055C108.545 361.521 111.418 364.131 114.433 366.869L115.778 365.388ZM198.948 440.663C168.037 412.797 138.043 385.609 115.778 365.388L114.433 366.869C136.7 387.091 166.695 414.28 197.609 442.148L198.948 440.663ZM340.862 565.624C326.241 554.815 260.82 496.439 198.948 440.663L197.609 442.148C259.421 497.87 324.95 556.347 339.673 567.232L340.862 565.624ZM353.501 576.063C348.447 571.732 344.194 568.087 340.862 565.624L339.673 567.232C342.934 569.642 347.122 573.231 352.199 577.581L353.501 576.063ZM433.649 628.357C399.005 615.048 371.179 591.212 353.501 576.063L352.199 577.581C369.859 592.715 397.925 616.775 432.932 630.224L433.649 628.357ZM507.73 635.791C480.886 641.075 455.894 636.904 433.649 628.357L432.932 630.224C455.445 638.874 480.824 643.125 508.116 637.753L507.73 635.791ZM593.257 586.21C563.391 615.745 534.57 630.507 507.73 635.791L508.116 637.753C535.409 632.38 564.571 617.392 594.663 587.632L593.257 586.21ZM674.412 466.387C650.358 513.949 623.125 556.671 593.257 586.21L594.663 587.632C624.755 557.873 652.103 514.931 676.197 467.289L674.412 466.387ZM736.361 317.943C719.28 366.55 698.456 418.842 674.412 466.387L676.197 467.289C700.293 419.641 721.15 367.262 738.248 318.606L736.361 317.943ZM775.83 191.694C766.77 224.441 753.441 269.339 736.361 317.943L738.248 318.606C755.347 269.948 768.69 225.005 777.758 192.227L775.83 191.694ZM785.708 154.499C783.392 163.639 780.081 176.328 775.83 191.694L777.758 192.227C782.013 176.846 785.327 164.143 787.646 154.99L785.708 154.499ZM724.951 78.6924C724.951 116.305 751.247 147.773 786.457 155.72L786.897 153.769C752.58 146.024 726.951 115.35 726.951 78.6924H724.951ZM803.916 -0.272461C760.305 -0.272461 724.951 35.0813 724.951 78.6924H726.951C726.951 36.1859 761.41 1.72754 803.916 1.72754V-0.272461ZM882.881 78.6924C882.881 35.0813 847.527 -0.272461 803.916 -0.272461V1.72754C846.423 1.72754 880.881 36.1859 880.881 78.6924H882.881ZM819.292 156.161C855.543 149.006 882.881 117.043 882.881 78.6924H880.881C880.881 116.069 854.237 147.225 818.905 154.199L819.292 156.161ZM822.392 164.621C821.58 161.264 820.806 158.036 820.072 154.948L818.126 155.411C818.861 158.501 819.635 161.731 820.448 165.092L822.392 164.621ZM854.881 285.747C841.151 239.527 830.056 196.297 822.392 164.621L820.448 165.092C828.117 196.79 839.222 240.055 852.963 286.316L854.881 285.747ZM903.153 424.769C884.969 381.162 868.611 331.97 854.881 285.747L852.963 286.316C866.705 332.576 883.085 381.841 901.307 425.538L903.153 424.769ZM962.245 530.095C941.325 506.324 921.351 468.41 903.153 424.769L901.307 425.538C919.524 469.224 939.599 507.39 960.744 531.417L962.245 530.095ZM1066.23 622.062C1034.93 607.834 1004.45 578.047 962.245 530.095L960.744 531.417C1002.91 579.335 1033.65 609.453 1065.4 623.883L1066.23 622.062ZM1175.38 620.404C1129.55 635.045 1097.38 636.225 1066.23 622.062L1065.4 623.883C1097.19 638.335 1129.92 637.026 1175.99 622.309L1175.38 620.404ZM1264.06 565.118C1229.54 592.381 1198.1 613.147 1175.38 620.404L1175.99 622.309C1199.09 614.93 1230.79 593.946 1265.3 566.688L1264.06 565.118ZM1370.35 471.684C1335.86 504.341 1298.51 537.898 1264.06 565.118L1265.3 566.688C1299.82 539.415 1337.22 505.813 1371.73 473.136L1370.35 471.684ZM1459.46 383.716C1436.46 407.292 1404.84 439.03 1370.35 471.684L1371.73 473.136C1406.24 440.459 1437.88 408.701 1460.89 385.112L1459.46 383.716ZM1486.76 355.384C1480.29 362.182 1470.95 371.928 1459.46 383.716L1460.89 385.112C1472.39 373.318 1481.74 363.566 1488.21 356.762L1486.76 355.384ZM1488.35 353.714C1487.84 354.249 1487.31 354.805 1486.76 355.384L1488.21 356.762C1488.76 356.183 1489.29 355.626 1489.8 355.091L1488.35 353.714ZM1447.07 285.738C1447.07 315.805 1463.87 341.945 1488.6 355.282L1489.55 353.522C1465.45 340.52 1449.07 315.041 1449.07 285.738H1447.07ZM1526.04 206.773C1482.42 206.773 1447.07 242.127 1447.07 285.738H1449.07C1449.07 243.232 1483.53 208.773 1526.04 208.773V206.773ZM1605 285.738C1605 242.127 1569.65 206.773 1526.04 206.773V208.773C1568.54 208.773 1603 243.232 1603 285.738H1605ZM1526.04 364.703C1569.65 364.703 1605 329.349 1605 285.738H1603C1603 328.245 1568.54 362.703 1526.04 362.703V364.703ZM1512.3 363.513C1516.76 364.295 1521.35 364.703 1526.04 364.703V362.703C1521.47 362.703 1516.99 362.305 1512.65 361.543L1512.3 363.513ZM1276.91 1074.79L1513.42 362.843L1511.52 362.213L1275.01 1074.16L1276.91 1074.79ZM1274.69 1075.11L1275.64 1075.42L1276.27 1073.52L1275.32 1073.21L1274.69 1075.11ZM1510.53 362.032L1274.06 1073.84L1275.96 1074.47L1512.43 362.662L1510.53 362.032ZM1489.53 355.775C1496.27 359.297 1503.58 361.874 1511.29 363.33L1511.67 361.364C1504.15 359.945 1497.02 357.434 1490.45 354.002L1489.53 355.775ZM1488.93 357.451C1489.56 356.799 1490.15 356.174 1490.72 355.577L1489.27 354.2C1488.7 354.797 1488.11 355.421 1487.49 356.073L1488.93 357.451ZM1461.6 385.811C1473.11 374.013 1482.46 364.258 1488.94 357.451L1487.49 356.073C1481.02 362.874 1471.67 372.623 1460.17 384.414L1461.6 385.811ZM1372.42 473.863C1406.94 441.173 1438.59 409.405 1461.6 385.811L1460.17 384.414C1437.17 407.996 1405.54 439.744 1371.04 472.41L1372.42 473.863ZM1265.92 567.472C1300.47 540.173 1337.89 506.549 1372.42 473.863L1371.04 472.41C1336.54 505.077 1299.17 538.656 1264.68 565.903L1265.92 567.472ZM1176.3 623.262C1199.59 615.821 1231.41 594.729 1265.92 567.472L1264.68 565.903C1230.17 593.164 1198.6 614.038 1175.69 621.357L1176.3 623.262ZM1064.99 624.794C1097.1 639.39 1130.11 638.016 1176.3 623.262L1175.69 621.357C1129.74 636.036 1097.29 637.28 1065.81 622.973L1064.99 624.794ZM959.993 532.077C1002.15 579.979 1033.02 610.262 1064.99 624.794L1065.81 622.973C1034.29 608.644 1003.68 578.691 961.495 530.756L959.993 532.077ZM900.384 425.923C918.61 469.631 938.736 507.923 959.993 532.077L961.495 530.756C940.462 506.857 920.437 468.817 902.23 425.154L900.384 425.923ZM852.005 286.601C865.752 332.879 882.143 382.181 900.384 425.923L902.23 425.154C884.027 381.502 867.658 332.273 853.922 286.031L852.005 286.601ZM819.476 165.327C827.148 197.037 838.257 240.318 852.005 286.601L853.922 286.031C840.187 239.791 829.086 196.544 821.42 164.856L819.476 165.327ZM817.143 155.599C817.881 158.703 818.659 161.949 819.476 165.327L821.42 164.856C820.603 161.482 819.826 158.238 819.088 155.136L817.143 155.599ZM1133.45 321.242C1164.57 320.676 1189.62 295.273 1189.62 264.018H1187.62C1187.62 294.18 1163.45 318.696 1133.41 319.242L1133.45 321.242ZM1189.62 264.018C1189.62 232.409 1164 206.785 1132.39 206.785V208.785C1162.89 208.785 1187.62 233.513 1187.62 264.018H1189.62ZM1132.39 206.785C1100.78 206.785 1075.16 232.409 1075.16 264.018H1077.16C1077.16 233.513 1101.89 208.785 1132.39 208.785V206.785ZM1075.16 264.018C1075.16 290.108 1092.61 312.118 1116.48 319.011L1117.03 317.089C1094 310.437 1077.16 289.193 1077.16 264.018H1075.16ZM1115.89 317.55C1099.61 345.77 1073.18 391.279 1049.22 431.211C1037.24 451.179 1025.87 469.746 1016.71 484.058C1012.12 491.215 1008.09 497.301 1004.81 501.962C1001.51 506.654 999.018 509.824 997.502 511.222L998.858 512.692C1000.55 511.127 1003.16 507.78 1006.45 503.114C1009.75 498.418 1013.8 492.305 1018.39 485.137C1027.57 470.8 1038.95 452.214 1050.93 432.241C1074.9 392.293 1101.34 346.772 1117.62 318.55L1115.89 317.55ZM997.502 511.222C996.178 512.443 995.65 514.261 995.668 516.346C995.686 518.433 996.248 520.921 997.255 523.685C999.273 529.221 1003.16 536.084 1008.53 543.494C1019.28 558.323 1036.1 575.503 1056.26 588.834C1076.41 602.162 1099.98 611.695 1124.2 611.09C1148.46 610.485 1173.25 599.708 1195.78 572.674L1194.25 571.393C1172.04 598.034 1147.78 608.501 1124.15 609.091C1100.48 609.681 1077.31 600.36 1057.36 587.166C1037.42 573.975 1020.77 556.966 1010.15 542.32C1004.84 534.992 1001.06 528.297 999.134 523C998.168 520.348 997.683 518.101 997.668 516.328C997.652 514.554 998.104 513.387 998.858 512.692L997.502 511.222ZM1195.95 571.685C1164.81 488.044 1140.05 380.999 1134.43 320.15L1132.44 320.334C1138.08 381.389 1162.89 488.608 1194.08 572.382L1195.95 571.685ZM487.219 318.311C509.927 310.721 526.296 289.282 526.296 264.018H524.296C524.296 288.396 508.502 309.089 486.585 316.415L487.219 318.311ZM609.197 515.232C560.972 443.458 507.816 351.979 487.77 316.867L486.034 317.859C506.083 352.977 559.269 444.51 607.537 516.347L609.197 515.232ZM405.688 570.149C425.645 592.036 459.155 611.396 496.443 608.812C533.799 606.223 574.638 581.639 609.251 516.258L607.483 515.322C573.08 580.307 532.759 604.291 496.304 606.817C459.781 609.347 426.829 590.366 407.166 568.802L405.688 570.149ZM464.388 320.018C460.5 353.58 453.553 406.638 443.688 455.917C438.756 480.558 433.098 504.235 426.734 524.048C420.36 543.897 413.315 559.745 405.662 568.831L407.192 570.12C415.114 560.713 422.254 544.539 428.639 524.66C435.034 504.746 440.709 480.988 445.649 456.31C455.529 406.951 462.484 353.831 466.374 320.248L464.388 320.018ZM411.829 264.018C411.829 294.369 435.453 319.201 465.317 321.131L465.446 319.135C436.627 317.273 413.829 293.307 413.829 264.018H411.829ZM469.063 206.785C437.453 206.785 411.829 232.409 411.829 264.018H413.829C413.829 233.513 438.558 208.785 469.063 208.785V206.785ZM526.296 264.018C526.296 232.409 500.672 206.785 469.063 206.785V208.785C499.567 208.785 524.296 233.513 524.296 264.018H526.296Z" fill="url(#paint0_linear_300_371)" mask="url(#path-1-inside-1_300_371)"/>
<defs>
<linearGradient id="paint0_linear_300_371" x1="802" y1="0.727539" x2="802" y2="1074.47" gradientUnits="userSpaceOnUse">
<stop stop-color="#FC56FF"/>
<stop offset="1" stop-color="#AE3C30"/>
</linearGradient>
</defs>
</svg>
