<!-- 1920 640 -->
<svg className='h-186.25 w-full' viewBox="0 0 1920 640" fill="none" xmlns="http://www.w3.org/2000/svg">
<path d="M34.6621 157.256H32.6621V159.256H34.6621V157.256ZM34.6621 127.52H36.6621V127.45L36.6572 127.38L34.6621 127.52ZM-50.1035 132.646H-48.1035V132.62L-48.1042 132.594L-50.1035 132.646ZM-50.1035 507.598L-48.1042 507.65L-48.1035 507.624V507.598H-50.1035ZM34.6621 507.598H32.6621V507.624L32.6628 507.65L34.6621 507.598ZM34.6621 476.494V474.494H32.6621V476.494H34.6621ZM126.947 476.494H128.947V474.494H126.947V476.494ZM29.877 639.189V641.189L29.891 641.189L29.877 639.189ZM-45.6602 639.189L-45.6742 641.189H-45.6602V639.189ZM-45.6602 0.712891V-1.28717L-45.6742 -1.28705L-45.6602 0.712891ZM29.877 0.712891L29.8916 -1.28705L29.8842 -1.28711H29.877V0.712891ZM126.947 92.3145H128.947V92.2769L128.946 92.2393L126.947 92.3145ZM126.947 157.256V159.256H128.947V157.256H126.947ZM36.6621 157.256V127.52H32.6621V157.256H36.6621ZM36.6572 127.38C35.8352 115.636 32.049 106.526 25.0435 100.381C18.059 94.2545 8.17523 91.3398 -4.30273 91.3398V95.3398C7.60081 95.3398 16.402 98.1218 22.4057 103.388C28.3885 108.636 31.894 116.617 32.667 127.659L36.6572 127.38ZM-4.30273 91.3398H-11.1387V95.3398H-4.30273V91.3398ZM-11.1387 91.3398C-24.7638 91.3398 -35.2858 94.6874 -42.2954 101.758C-49.3116 108.836 -52.4528 119.284 -52.1028 132.699L-48.1042 132.594C-48.4379 119.804 -45.4267 110.599 -39.4546 104.575C-33.4759 98.5434 -24.1737 95.3398 -11.1387 95.3398V91.3398ZM-52.1035 132.646V507.598H-48.1035V132.646H-52.1035ZM-52.1028 507.546C-52.4528 520.96 -49.3116 531.408 -42.2954 538.486C-35.2858 545.557 -24.7638 548.904 -11.1387 548.904V544.904C-24.1737 544.904 -33.4759 541.701 -39.4546 535.67C-45.4267 529.645 -48.4379 520.44 -48.1042 507.65L-52.1028 507.546ZM-11.1387 548.904H-4.30273V544.904H-11.1387V548.904ZM-4.30273 548.904C9.32239 548.904 19.8444 545.557 26.854 538.486C33.8701 531.408 37.0114 520.96 36.6614 507.546L32.6628 507.65C32.9964 520.44 29.9853 529.645 24.0132 535.67C18.0345 541.701 8.7323 544.904 -4.30273 544.904V548.904ZM36.6621 507.598V476.494H32.6621V507.598H36.6621ZM34.6621 478.494H126.947V474.494H34.6621V478.494ZM124.947 476.494V541.777H128.947V476.494H124.947ZM124.947 541.777C124.947 573.709 116.938 597.353 101.263 613.083C85.5868 628.814 61.912 636.964 29.8629 637.189L29.891 641.189C62.5555 640.959 87.4158 632.646 104.096 615.906C120.778 599.166 128.947 574.331 128.947 541.777H124.947ZM29.877 637.189H-45.6602V641.189H29.877V637.189ZM-45.6461 637.189C-77.6952 636.964 -101.37 628.814 -117.046 613.083C-132.721 597.353 -140.73 573.709 -140.73 541.777H-144.73C-144.73 574.331 -136.561 599.166 -119.88 615.906C-103.199 632.646 -78.3387 640.959 -45.6742 641.189L-45.6461 637.189ZM-140.73 541.777V98.125H-144.73V541.777H-140.73ZM-140.73 98.125C-140.73 66.1934 -132.721 42.5496 -117.046 26.8194C-101.37 11.088 -77.6952 2.93854 -45.6461 2.71283L-45.6742 -1.28705C-78.3387 -1.05704 -103.199 7.25668 -119.88 23.996C-136.561 40.7366 -144.73 65.5709 -144.73 98.125H-140.73ZM-45.6602 2.71289H29.877V-1.28711H-45.6602V2.71289ZM29.8624 2.71283C60.7789 2.93851 83.9129 10.6082 99.5981 25.4097C115.274 40.202 123.822 62.413 124.949 92.3896L128.946 92.2393C127.794 61.6039 119.025 38.242 102.343 22.5005C85.6717 6.7681 61.4099 -1.05701 29.8916 -1.28705L29.8624 2.71283ZM124.947 92.3145V93.3398H128.947V92.3145H124.947ZM124.947 93.3398V98.125H128.947V93.3398H124.947ZM124.947 98.125V157.256H128.947V98.125H124.947ZM126.947 155.256H34.6621V159.256H126.947V155.256ZM378.041 132.646L376.042 132.594L376.041 132.62V132.646H378.041ZM286.439 132.646H288.439V132.62L288.439 132.594L286.439 132.646ZM286.439 507.598L288.439 507.65L288.439 507.624V507.598H286.439ZM378.041 507.598H376.041V507.624L376.042 507.65L378.041 507.598ZM290.883 0.712891V-1.28717L290.869 -1.28705L290.883 0.712891ZM373.256 0.712891L373.27 -1.28711H373.256V0.712891ZM373.256 639.189V641.189L373.27 641.189L373.256 639.189ZM290.883 639.189L290.869 641.189H290.883V639.189ZM380.04 132.699C380.39 119.284 377.249 108.836 370.233 101.758C363.223 94.6874 352.701 91.3398 339.076 91.3398V95.3398C352.111 95.3398 361.413 98.5434 367.392 104.575C373.364 110.599 376.375 119.804 376.042 132.594L380.04 132.699ZM339.076 91.3398H325.404V95.3398H339.076V91.3398ZM325.404 91.3398C311.779 91.3398 301.257 94.6874 294.248 101.758C287.231 108.836 284.09 119.284 284.44 132.699L288.439 132.594C288.105 119.804 291.116 110.599 297.088 104.575C303.067 98.5434 312.369 95.3398 325.404 95.3398V91.3398ZM284.439 132.646V507.598H288.439V132.646H284.439ZM284.44 507.546C284.09 520.96 287.231 531.408 294.248 538.486C301.257 545.557 311.779 548.904 325.404 548.904V544.904C312.369 544.904 303.067 541.701 297.088 535.67C291.116 529.645 288.105 520.44 288.439 507.65L284.44 507.546ZM325.404 548.904H339.076V544.904H325.404V548.904ZM339.076 548.904C352.701 548.904 363.223 545.557 370.233 538.486C377.249 531.408 380.39 520.96 380.04 507.546L376.042 507.65C376.375 520.44 373.364 529.645 367.392 535.67C361.413 541.701 352.111 544.904 339.076 544.904V548.904ZM380.041 507.598V132.646H376.041V507.598H380.041ZM195.812 98.125C195.812 66.1934 203.822 42.5496 219.497 26.8194C235.173 11.088 258.848 2.93854 290.897 2.71283L290.869 -1.28705C258.204 -1.05704 233.344 7.25668 216.663 23.996C199.982 40.7366 191.812 65.5709 191.812 98.125H195.812ZM290.883 2.71289H373.256V-1.28711H290.883V2.71289ZM373.242 2.71283C405.291 2.93854 428.966 11.088 444.642 26.8194C460.317 42.5496 468.326 66.1934 468.326 98.125H472.326C472.326 65.5709 464.157 40.7366 447.475 23.996C430.795 7.25668 405.934 -1.05704 373.27 -1.28705L373.242 2.71283ZM468.326 98.125V541.777H472.326V98.125H468.326ZM468.326 541.777C468.326 573.709 460.317 597.353 444.642 613.083C428.966 628.814 405.291 636.964 373.242 637.189L373.27 641.189C405.934 640.959 430.795 632.646 447.475 615.906C464.157 599.166 472.326 574.331 472.326 541.777H468.326ZM373.256 637.189H290.883V641.189H373.256V637.189ZM290.897 637.189C258.848 636.964 235.173 628.814 219.497 613.083C203.822 597.353 195.812 573.709 195.812 541.777H191.812C191.812 574.331 199.982 599.166 216.663 615.906C233.344 632.646 258.204 640.959 290.869 641.189L290.897 637.189ZM195.812 541.777V98.125H191.812V541.777H195.812ZM537.191 639.531H535.191V641.531H537.191V639.531ZM537.191 0.712891V-1.28711H535.191V0.712891H537.191ZM628.109 0.712891H630.109V-1.28711H628.109V0.712891ZM628.109 548.613H626.109V550.613H628.109V548.613ZM778.158 548.613H780.158V546.613H778.158V548.613ZM778.158 639.531V641.531H780.158V639.531H778.158ZM539.191 639.531V0.712891H535.191V639.531H539.191ZM537.191 2.71289H628.109V-1.28711H537.191V2.71289ZM626.109 0.712891V548.613H630.109V0.712891H626.109ZM628.109 550.613H778.158V546.613H628.109V550.613ZM776.158 548.613V639.531H780.158V548.613H776.158ZM778.158 637.531H537.191V641.531H778.158V637.531ZM833.402 639.531H831.402V641.531H833.402V639.531ZM833.402 0.712891V-1.28711H831.402V0.712891H833.402ZM924.32 0.712891H926.32V-1.28711H924.32V0.712891ZM924.32 548.613H922.32V550.613H924.32V548.613ZM1074.37 548.613H1076.37V546.613H1074.37V548.613ZM1074.37 639.531V641.531H1076.37V639.531H1074.37ZM835.402 639.531V0.712891H831.402V639.531H835.402ZM833.402 2.71289H924.32V-1.28711H833.402V2.71289ZM922.32 0.712891V548.613H926.32V0.712891H922.32ZM924.32 550.613H1074.37V546.613H924.32V550.613ZM1072.37 548.613V639.531H1076.37V548.613H1072.37ZM1074.37 637.531H833.402V641.531H1074.37V637.531ZM1129.61 639.531H1127.61V641.531H1129.61V639.531ZM1129.61 0.712891V-1.28711H1127.61V0.712891H1129.61ZM1377.42 0.712891H1379.42V-1.28711H1377.42V0.712891ZM1377.42 91.6309V93.6309H1379.42V91.6309H1377.42ZM1220.53 91.6309V89.6309H1218.53V91.6309H1220.53ZM1220.53 233.135H1218.53V235.135H1220.53V233.135ZM1315.55 233.135H1317.55V231.135H1315.55V233.135ZM1315.55 324.053V326.053H1317.55V324.053H1315.55ZM1220.53 324.053V322.053H1218.53V324.053H1220.53ZM1220.53 548.613H1218.53V550.613H1220.53V548.613ZM1377.42 548.613H1379.42V546.613H1377.42V548.613ZM1377.42 639.531V641.531H1379.42V639.531H1377.42ZM1131.61 639.531V0.712891H1127.61V639.531H1131.61ZM1129.61 2.71289H1377.42V-1.28711H1129.61V2.71289ZM1375.42 0.712891V91.6309H1379.42V0.712891H1375.42ZM1377.42 89.6309H1220.53V93.6309H1377.42V89.6309ZM1218.53 91.6309V233.135H1222.53V91.6309H1218.53ZM1220.53 235.135H1315.55V231.135H1220.53V235.135ZM1313.55 233.135V324.053H1317.55V233.135H1313.55ZM1315.55 322.053H1220.53V326.053H1315.55V322.053ZM1218.53 324.053V548.613H1222.53V324.053H1218.53ZM1220.53 550.613H1377.42V546.613H1220.53V550.613ZM1375.42 548.613V639.531H1379.42V548.613H1375.42ZM1377.42 637.531H1129.61V641.531H1377.42V637.531ZM1572.11 274.834V272.834H1570.11V274.834H1572.11ZM1717.38 274.834H1719.38V272.834H1717.38V274.834ZM1620.31 639.189V641.189L1620.32 641.189L1620.31 639.189ZM1541.35 639.189L1541.34 641.189H1541.35V639.189ZM1541.35 0.712891V-1.28717L1541.34 -1.28705L1541.35 0.712891ZM1620.31 0.712891L1620.32 -1.28705L1620.31 -1.28711H1620.31V0.712891ZM1717.38 92.3145H1719.38V92.2806L1719.38 92.2468L1717.38 92.3145ZM1717.38 150.42V152.42H1719.38V150.42H1717.38ZM1625.09 150.42H1623.09V152.42H1625.09V150.42ZM1625.09 128.203H1627.09V128.174L1627.09 128.144L1625.09 128.203ZM1536.91 132.646H1538.91V132.62L1538.91 132.594L1536.91 132.646ZM1536.91 507.598L1538.91 507.65L1538.91 507.624V507.598H1536.91ZM1625.09 512.041L1627.09 512.1L1627.09 512.07V512.041H1625.09ZM1625.09 363.701H1627.09V361.701H1625.09V363.701ZM1572.11 363.701H1570.11V365.701H1572.11V363.701ZM1572.11 276.834H1717.38V272.834H1572.11V276.834ZM1715.38 274.834V541.777H1719.38V274.834H1715.38ZM1715.38 541.777C1715.38 573.709 1707.37 597.353 1691.69 613.083C1676.02 628.814 1652.34 636.964 1620.29 637.189L1620.32 641.189C1652.99 640.959 1677.85 632.646 1694.53 615.906C1711.21 599.166 1719.38 574.331 1719.38 541.777H1715.38ZM1620.31 637.189H1541.35V641.189H1620.31V637.189ZM1541.37 637.189C1509.32 636.964 1485.64 628.814 1469.97 613.083C1454.29 597.353 1446.28 573.709 1446.28 541.777H1442.28C1442.28 574.331 1450.45 599.166 1467.13 615.906C1483.81 632.646 1508.67 640.959 1541.34 641.189L1541.37 637.189ZM1446.28 541.777V98.125H1442.28V541.777H1446.28ZM1446.28 98.125C1446.28 66.1934 1454.29 42.5496 1469.97 26.8194C1485.64 11.088 1509.32 2.93854 1541.37 2.71283L1541.34 -1.28705C1508.67 -1.05704 1483.81 7.25668 1467.13 23.996C1450.45 40.7366 1442.28 65.5709 1442.28 98.125H1446.28ZM1541.35 2.71289H1620.31V-1.28711H1541.35V2.71289ZM1620.29 2.71283C1651.32 2.93854 1674.51 10.6093 1690.2 25.4097C1705.87 40.1996 1714.36 62.4071 1715.38 92.3821L1719.38 92.2468C1718.34 61.6099 1709.63 38.2444 1692.94 22.5005C1676.27 6.76697 1651.95 -1.05701 1620.32 -1.28705L1620.29 2.71283ZM1715.38 92.3145V150.42H1719.38V92.3145H1715.38ZM1717.38 148.42H1625.09V152.42H1717.38V148.42ZM1627.09 150.42V128.203H1623.09V150.42H1627.09ZM1627.09 128.144C1626.74 116.166 1623.2 106.852 1616.17 100.565C1609.18 94.3052 1599.05 91.3398 1586.13 91.3398V95.3398C1598.5 95.3398 1607.51 98.185 1613.5 103.546C1619.47 108.881 1622.76 116.998 1623.09 128.262L1627.09 128.144ZM1586.13 91.3398H1575.87V95.3398H1586.13V91.3398ZM1575.87 91.3398C1562.25 91.3398 1551.73 94.6874 1544.72 101.758C1537.7 108.836 1534.56 119.284 1534.91 132.699L1538.91 132.594C1538.57 119.804 1541.58 110.599 1547.56 104.575C1553.54 98.5434 1562.84 95.3398 1575.87 95.3398V91.3398ZM1534.91 132.646V507.598H1538.91V132.646H1534.91ZM1534.91 507.546C1534.56 520.96 1537.7 531.408 1544.72 538.486C1551.73 545.557 1562.25 548.904 1575.87 548.904V544.904C1562.84 544.904 1553.54 541.701 1547.56 535.67C1541.58 529.645 1538.57 520.44 1538.91 507.65L1534.91 507.546ZM1575.87 548.904H1586.13V544.904H1575.87V548.904ZM1586.13 548.904C1599.05 548.904 1609.18 545.939 1616.17 539.679C1623.2 533.392 1626.74 524.078 1627.09 512.1L1623.09 511.982C1622.76 523.246 1619.47 531.364 1613.5 536.698C1607.51 542.059 1598.5 544.904 1586.13 544.904V548.904ZM1627.09 512.041V363.701H1623.09V512.041H1627.09ZM1625.09 361.701H1572.11V365.701H1625.09V361.701ZM1574.11 363.701V274.834H1570.11V363.701H1574.11ZM1784.24 639.531H1782.24V641.531H1784.24V639.531ZM1784.24 0.712891V-1.28711H1782.24V0.712891H1784.24ZM2032.04 0.712891H2034.04V-1.28711H2032.04V0.712891ZM2032.04 91.6309V93.6309H2034.04V91.6309H2032.04ZM1875.16 91.6309V89.6309H1873.16V91.6309H1875.16ZM1875.16 233.135H1873.16V235.135H1875.16V233.135ZM1970.18 233.135H1972.18V231.135H1970.18V233.135ZM1970.18 324.053V326.053H1972.18V324.053H1970.18ZM1875.16 324.053V322.053H1873.16V324.053H1875.16ZM1875.16 548.613H1873.16V550.613H1875.16V548.613ZM2032.04 548.613H2034.04V546.613H2032.04V548.613ZM2032.04 639.531V641.531H2034.04V639.531H2032.04ZM1786.24 639.531V0.712891H1782.24V639.531H1786.24ZM1784.24 2.71289H2032.04V-1.28711H1784.24V2.71289ZM2030.04 0.712891V91.6309H2034.04V0.712891H2030.04ZM2032.04 89.6309H1875.16V93.6309H2032.04V89.6309ZM1873.16 91.6309V233.135H1877.16V91.6309H1873.16ZM1875.16 235.135H1970.18V231.135H1875.16V235.135ZM1968.18 233.135V324.053H1972.18V233.135H1968.18ZM1970.18 322.053H1875.16V326.053H1970.18V322.053ZM1873.16 324.053V548.613H1877.16V324.053H1873.16ZM1875.16 550.613H2032.04V546.613H1875.16V550.613ZM2030.04 548.613V639.531H2034.04V548.613H2030.04ZM2032.04 637.531H1784.24V641.531H2032.04V637.531Z" fill="url(#paint0_linear_300_370)"/>
<defs>
<linearGradient id="paint0_linear_300_370" x1="958.5" y1="445" x2="958.5" y2="495" gradientUnits="userSpaceOnUse">
<stop stop-color="#EF8A01" stop-opacity="0.7"/>
<stop offset="1" stop-color="#AE3C30"/>
</linearGradient>
</defs>
</svg>
