<svg width="100%" height="100%" viewBox="0 0 301 311" fill="none" xmlns="http://www.w3.org/2000/svg">
<mask id="path-1-inside-1_385_46" fill="white">
<path fill-rule="evenodd" clip-rule="evenodd" d="M236.032 44.92C234.814 45.1244 233.562 45.2307 232.285 45.2307C230.798 45.2307 229.346 45.0866 227.94 44.8116C227.27 47.4574 226.31 51.1358 225.077 55.5925C222.458 65.0589 218.605 78.0392 213.666 92.0932C208.728 106.146 202.702 121.28 195.737 135.052C188.776 148.817 180.862 161.251 172.136 169.88C163.41 178.509 154.932 182.876 146.974 184.442C139.017 186.009 131.623 184.767 125.077 182.253C114.902 178.344 106.692 171.304 101.605 166.943C100.172 165.714 98.9865 164.698 98.0751 164.024C93.8071 160.869 74.8738 143.973 57.0431 127.899C48.1197 119.854 39.4615 112.006 33.0343 106.169C32.0729 105.296 31.1615 104.468 30.3065 103.691C28.9747 104.166 27.5851 104.519 26.151 104.736L94.7894 309.943L93.8411 310.261L25.14 104.867C24.3538 104.95 23.5555 104.992 22.7472 104.992C10.3188 104.992 0.24353 94.917 0.24353 82.4885C0.24353 70.0601 10.3188 59.9849 22.7472 59.9849C35.1756 59.9849 45.2508 70.0601 45.2508 82.4885C45.2508 91.8697 39.5106 99.9101 31.3509 103.289C32.0968 103.967 32.8834 104.681 33.7066 105.429C40.1333 111.265 48.7905 119.113 57.7127 127.156C75.5734 143.257 94.4526 160.103 98.6695 163.22C99.6429 163.94 100.879 164.999 102.356 166.264L102.357 166.265L102.357 166.265L102.358 166.266C107.464 170.64 115.451 177.483 125.436 181.319C131.847 183.782 139.048 184.984 146.781 183.461C154.513 181.939 162.821 177.686 171.433 169.168C180.047 160.65 187.904 148.326 194.845 134.6C201.783 120.881 207.793 105.79 212.723 91.7617C217.652 77.7345 221.499 64.7769 224.113 55.3258C225.339 50.8946 226.294 47.2348 226.963 44.5977C217.103 42.2068 209.781 33.322 209.781 22.727C209.781 10.2986 219.856 0.223389 232.285 0.223389C244.713 0.223389 254.788 10.2986 254.788 22.727C254.788 33.5326 247.173 42.5594 237.016 44.7325C237.227 45.6205 237.449 46.5485 237.683 47.5137C239.895 56.6558 243.097 69.1324 247.059 82.4718C251.022 95.8126 255.743 110.009 260.99 122.592C266.242 135.187 272.004 146.122 278.035 152.975C290.217 166.817 299.006 175.404 308.026 179.504C316.997 183.582 326.263 183.246 339.485 179.022C346.029 176.932 355.096 170.945 365.057 163.076C375.001 155.221 385.779 145.536 395.734 136.111C405.688 126.687 414.814 117.526 421.451 110.722C424.769 107.32 427.465 104.507 429.332 102.545L429.725 102.13C422.855 98.2778 418.213 90.9254 418.213 82.4885C418.213 70.0601 428.288 59.9849 440.716 59.9849C453.145 59.9849 463.22 70.0601 463.22 82.4885C463.22 94.917 453.145 104.992 440.716 104.992C439.505 104.992 438.316 104.897 437.157 104.712L368.872 310.26L367.923 309.944L436.163 104.531C434.22 104.132 432.368 103.482 430.642 102.617C430.457 102.812 430.262 103.018 430.056 103.234C428.188 105.199 425.488 108.015 422.167 111.42C415.524 118.231 406.388 127.401 396.422 136.837C386.457 146.272 375.654 155.979 365.677 163.86C355.718 171.728 346.525 177.823 339.789 179.975C326.45 184.236 316.901 184.637 307.612 180.414C298.37 176.213 289.451 167.461 277.284 153.636C271.141 146.655 265.329 135.594 260.067 122.977C254.801 110.348 250.069 96.1155 246.101 82.7566C242.132 69.3962 238.925 56.9023 236.711 47.7488C236.473 46.7664 236.247 45.8225 236.032 44.92ZM327.396 92.4476C336.221 92.2872 343.326 85.0829 343.326 76.2192C343.326 67.255 336.059 59.988 327.095 59.988C318.131 59.988 310.864 67.255 310.864 76.2192C310.864 83.6177 315.814 89.86 322.583 91.8149C313.183 108.106 292.066 144.364 288.357 147.784C283.558 152.209 319.345 196.11 345.171 165.124C336.176 140.963 329.022 110.041 327.396 92.4476ZM151.864 76.2192C151.864 83.3836 147.222 89.4638 140.782 91.6166C146.569 101.752 161.916 128.164 175.842 148.89C155.921 186.519 128.99 176.928 117.554 164.386C126.545 153.71 132.325 111.797 134.571 92.4162C126.102 91.8689 119.402 84.8264 119.402 76.2192C119.402 67.255 126.669 59.988 135.633 59.988C144.597 59.988 151.864 67.255 151.864 76.2192Z"/>
</mask>
<path d="M236.032 44.92L237.005 44.6887L236.789 43.7792L235.867 43.9338L236.032 44.92ZM227.94 44.8116L228.132 43.8302L227.203 43.6485L226.971 44.566L227.94 44.8116ZM225.077 55.5925L226.041 55.8591L225.077 55.5925ZM213.666 92.0932L214.61 92.4248V92.4248L213.666 92.0932ZM195.737 135.052L196.63 135.503L195.737 135.052ZM172.136 169.88L172.84 170.591L172.136 169.88ZM146.974 184.442L146.781 183.461L146.974 184.442ZM125.077 182.253L124.718 183.186L125.077 182.253ZM101.605 166.943L102.256 166.184L101.605 166.943ZM98.0751 164.024L97.4806 164.829L98.0751 164.024ZM57.0431 127.899L57.7127 127.156H57.7127L57.0431 127.899ZM33.0343 106.169L33.7066 105.429L33.0343 106.169ZM30.3065 103.691L30.9791 102.951L30.5354 102.548L29.9707 102.749L30.3065 103.691ZM26.151 104.736L26.001 103.748L24.8255 103.926L25.2026 105.054L26.151 104.736ZM94.7894 309.943L95.1066 310.892L96.055 310.575L95.7378 309.626L94.7894 309.943ZM93.8411 310.261L92.8927 310.578L93.2099 311.526L94.1583 311.209L93.8411 310.261ZM25.14 104.867L26.0884 104.549L25.8336 103.788L25.0349 103.872L25.14 104.867ZM31.3509 103.289L30.9683 102.365L29.5112 102.968L30.6784 104.029L31.3509 103.289ZM33.7066 105.429L34.3789 104.689H34.3789L33.7066 105.429ZM57.7127 127.156L57.0431 127.899L57.7127 127.156ZM98.6695 163.22L99.264 162.416H99.264L98.6695 163.22ZM102.356 166.264L101.705 167.024L101.714 167.031L102.356 166.264ZM102.357 166.265L103.064 165.558L103.033 165.527L102.999 165.499L102.357 166.265ZM102.357 166.265L101.65 166.972L101.675 166.997L101.701 167.02L102.357 166.265ZM102.358 166.266L101.701 167.02L101.707 167.025L102.358 166.266ZM125.436 181.319L125.794 180.386L125.436 181.319ZM146.781 183.461L146.588 182.48L146.781 183.461ZM171.433 169.168L172.136 169.88L171.433 169.168ZM194.845 134.6L195.737 135.052L194.845 134.6ZM212.723 91.7617L211.779 91.4302V91.4302L212.723 91.7617ZM224.113 55.3258L225.077 55.5925L224.113 55.3258ZM226.963 44.5977L227.932 44.8433L228.18 43.8639L227.198 43.6258L226.963 44.5977ZM237.016 44.7325L236.806 43.7547L235.806 43.9687L236.043 44.9639L237.016 44.7325ZM237.683 47.5137L236.711 47.7488V47.7488L237.683 47.5137ZM247.059 82.4718L248.018 82.1871L247.059 82.4718ZM260.99 122.592L260.067 122.977L260.99 122.592ZM278.035 152.975L277.284 153.636L278.035 152.975ZM308.026 179.504L308.439 178.593L308.026 179.504ZM339.485 179.022L339.18 178.07L339.485 179.022ZM365.057 163.076L365.677 163.86L365.057 163.076ZM395.734 136.111L396.422 136.837L395.734 136.111ZM421.451 110.722L420.735 110.024L421.451 110.722ZM429.332 102.545L430.056 103.234L430.057 103.234L429.332 102.545ZM429.725 102.13L430.45 102.819L431.336 101.887L430.215 101.258L429.725 102.13ZM437.157 104.712L437.314 103.725L436.476 103.591L436.208 104.397L437.157 104.712ZM368.872 310.26L368.556 311.209L369.505 311.524L369.821 310.575L368.872 310.26ZM367.923 309.944L366.974 309.629L366.658 310.578L367.608 310.893L367.923 309.944ZM436.163 104.531L437.112 104.847L437.467 103.778L436.365 103.552L436.163 104.531ZM430.642 102.617L431.091 101.723L430.427 101.391L429.917 101.929L430.642 102.617ZM430.056 103.234L430.781 103.923V103.923L430.056 103.234ZM422.167 111.42L421.451 110.722L422.167 111.42ZM396.422 136.837L395.734 136.111L396.422 136.837ZM365.677 163.86L366.297 164.645L365.677 163.86ZM339.789 179.975L340.093 180.927L339.789 179.975ZM307.612 180.414L308.026 179.504L307.612 180.414ZM277.284 153.636L276.534 154.296L277.284 153.636ZM260.067 122.977L260.99 122.592L260.067 122.977ZM246.101 82.7566L245.142 83.0413L246.101 82.7566ZM236.711 47.7488L237.683 47.5137L236.711 47.7488ZM327.396 92.4476L327.378 91.4478L326.301 91.4674L326.4 92.5397L327.396 92.4476ZM322.583 91.8149L323.449 92.3147L324.087 91.2085L322.86 90.8542L322.583 91.8149ZM288.357 147.784L287.679 147.049L288.357 147.784ZM345.171 165.124L345.939 165.765L346.31 165.319L346.108 164.775L345.171 165.124ZM140.782 91.6166L140.465 90.6682L139.31 91.0544L139.914 92.1124L140.782 91.6166ZM175.842 148.89L176.726 149.358L177.006 148.829L176.672 148.332L175.842 148.89ZM117.554 164.386L116.789 163.742L116.225 164.412L116.815 165.06L117.554 164.386ZM134.571 92.4162L135.564 92.5312L135.685 91.4861L134.635 91.4182L134.571 92.4162ZM232.285 46.2307C233.617 46.2307 234.924 46.1197 236.198 45.9063L235.867 43.9338C234.703 44.129 233.506 44.2307 232.285 44.2307V46.2307ZM227.748 45.793C229.217 46.0803 230.734 46.2307 232.285 46.2307V44.2307C230.863 44.2307 229.475 44.0929 228.132 43.8302L227.748 45.793ZM226.041 55.8591C227.276 51.3947 228.237 47.7092 228.909 45.0572L226.971 44.566C226.302 47.2055 225.344 50.8769 224.113 55.3258L226.041 55.8591ZM214.61 92.4248C219.558 78.3438 223.418 65.341 226.041 55.8591L224.113 55.3258C221.499 64.7769 217.652 77.7345 212.723 91.7617L214.61 92.4248ZM196.63 135.503C203.621 121.68 209.663 106.502 214.61 92.4248L212.723 91.7617C207.793 105.79 201.783 120.881 194.845 134.6L196.63 135.503ZM172.84 170.591C181.676 161.852 189.648 149.308 196.63 135.503L194.845 134.6C187.904 148.326 180.047 160.65 171.433 169.168L172.84 170.591ZM147.167 185.424C155.352 183.813 164 179.333 172.84 170.591L171.433 169.168C162.821 177.686 154.513 181.939 146.781 183.461L147.167 185.424ZM124.718 183.186C131.399 185.752 138.986 187.034 147.167 185.424L146.781 183.461C139.048 184.984 131.847 183.782 125.436 181.319L124.718 183.186ZM100.954 167.702C106.032 172.056 114.362 179.207 124.718 183.186L125.436 181.319C115.443 177.48 107.352 170.553 102.256 166.184L100.954 167.702ZM97.4806 164.829C98.356 165.476 99.5088 166.463 100.954 167.702L102.256 166.184C100.835 164.966 99.617 163.921 98.6695 163.22L97.4806 164.829ZM56.3736 128.641C74.1742 144.688 93.1616 161.636 97.4806 164.829L98.6695 163.22C94.4526 160.103 75.5734 143.257 57.7127 127.156L56.3736 128.641ZM32.362 106.91C38.7898 112.747 47.4489 120.596 56.3736 128.641L57.7127 127.156C48.7905 119.113 40.1333 111.265 33.7066 105.429L32.362 106.91ZM29.6339 104.431C30.489 105.208 31.4005 106.036 32.362 106.91L33.7066 105.429C32.7453 104.556 31.834 103.728 30.9791 102.951L29.6339 104.431ZM26.301 105.725C27.799 105.498 29.2509 105.129 30.6424 104.633L29.9707 102.749C28.6986 103.203 27.3711 103.54 26.001 103.748L26.301 105.725ZM95.7378 309.626L27.0993 104.419L25.2026 105.054L93.8411 310.261L95.7378 309.626ZM94.1583 311.209L95.1066 310.892L94.4722 308.995L93.5239 309.312L94.1583 311.209ZM24.1917 105.184L92.8927 310.578L94.7894 309.943L26.0884 104.549L24.1917 105.184ZM22.7472 105.992C23.5906 105.992 24.424 105.948 25.2451 105.861L25.0349 103.872C24.2835 103.951 23.5203 103.992 22.7472 103.992V105.992ZM-0.75647 82.4885C-0.75647 95.4693 9.76647 105.992 22.7472 105.992V103.992C10.871 103.992 1.24353 94.3647 1.24353 82.4885H-0.75647ZM22.7472 58.9849C9.76647 58.9849 -0.75647 69.5078 -0.75647 82.4885H1.24353C1.24353 70.6124 10.871 60.9849 22.7472 60.9849V58.9849ZM46.2508 82.4885C46.2508 69.5078 35.7279 58.9849 22.7472 58.9849V60.9849C34.6233 60.9849 44.2508 70.6124 44.2508 82.4885H46.2508ZM31.7335 104.213C40.2538 100.685 46.2508 92.2881 46.2508 82.4885H44.2508C44.2508 91.4512 38.7673 99.1355 30.9683 102.365L31.7335 104.213ZM34.3789 104.689C33.5558 103.941 32.7692 103.227 32.0234 102.549L30.6784 104.029C31.4243 104.707 32.211 105.422 33.0343 106.169L34.3789 104.689ZM58.3823 126.413C49.4613 118.371 40.805 110.525 34.3789 104.689L33.0343 106.169C39.4615 112.006 48.1197 119.854 57.0431 127.899L58.3823 126.413ZM99.264 162.416C95.0981 159.337 76.273 142.541 58.3823 126.413L57.0431 127.899C74.8738 143.972 93.8071 160.869 98.0751 164.024L99.264 162.416ZM103.007 165.505C101.541 164.249 100.273 163.162 99.264 162.416L98.0751 164.024C99.0127 164.718 100.217 165.748 101.706 167.024L103.007 165.505ZM102.999 165.499L102.999 165.498L101.714 167.031L101.714 167.031L102.999 165.499ZM103.064 165.558L103.064 165.558L101.65 166.972L101.65 166.972L103.064 165.558ZM103.014 165.511L103.013 165.51L101.701 167.02L101.701 167.02L103.014 165.511ZM125.794 180.386C115.991 176.619 108.123 169.889 103.008 165.506L101.707 167.025C106.804 171.392 114.911 178.347 125.077 182.253L125.794 180.386ZM146.588 182.48C139.079 183.958 132.072 182.797 125.794 180.386L125.077 182.253C131.623 184.767 139.017 186.009 146.974 184.442L146.588 182.48ZM170.73 168.457C162.231 176.863 154.094 181.003 146.588 182.48L146.974 184.442C154.932 182.876 163.41 178.509 172.136 169.88L170.73 168.457ZM193.953 134.149C187.031 147.835 179.232 160.049 170.73 168.457L172.136 169.88C180.862 161.251 188.776 148.817 195.737 135.052L193.953 134.149ZM211.779 91.4302C206.858 105.434 200.865 120.481 193.953 134.149L195.737 135.052C202.702 121.28 208.728 106.146 213.666 92.0932L211.779 91.4302ZM223.15 55.0592C220.539 64.4948 216.699 77.4299 211.779 91.4302L213.666 92.0932C218.605 78.0392 222.458 65.0589 225.077 55.5925L223.15 55.0592ZM225.993 44.352C225.326 46.9829 224.373 50.6357 223.15 55.0592L225.077 55.5925C226.305 51.1536 227.262 47.4867 227.932 44.8433L225.993 44.352ZM208.781 22.727C208.781 33.7941 216.429 43.0724 226.727 45.5695L227.198 43.6258C217.777 41.3412 210.781 32.8498 210.781 22.727H208.781ZM232.285 -0.776611C219.304 -0.776611 208.781 9.74633 208.781 22.727H210.781C210.781 10.8509 220.409 1.22339 232.285 1.22339V-0.776611ZM255.788 22.727C255.788 9.74633 245.265 -0.776611 232.285 -0.776611V1.22339C244.161 1.22339 253.788 10.8509 253.788 22.727H255.788ZM237.225 45.7104C247.833 43.4407 255.788 34.014 255.788 22.727H253.788C253.788 33.0512 246.512 41.6782 236.806 43.7547L237.225 45.7104ZM238.655 47.2785C238.422 46.3146 238.199 45.3879 237.989 44.5012L236.043 44.9639C236.254 45.853 236.477 46.7823 236.711 47.7488L238.655 47.2785ZM248.018 82.1871C244.062 68.8686 240.864 56.4094 238.655 47.2785L236.711 47.7488C238.925 56.9023 242.132 69.3962 246.101 82.7566L248.018 82.1871ZM261.913 122.207C256.685 109.669 251.975 95.5096 248.018 82.1871L246.101 82.7566C250.069 96.1155 254.801 110.348 260.067 122.977L261.913 122.207ZM278.786 152.314C272.867 145.589 267.156 134.78 261.913 122.207L260.067 122.977C265.329 135.594 271.141 146.655 277.284 153.636L278.786 152.314ZM308.439 178.593C299.642 174.594 290.982 166.173 278.786 152.314L277.284 153.636C289.451 167.461 298.37 176.213 307.612 180.414L308.439 178.593ZM339.18 178.07C326.077 182.255 317.093 182.527 308.439 178.593L307.612 180.414C316.901 184.637 326.45 184.236 339.789 179.975L339.18 178.07ZM364.438 162.291C354.473 170.162 345.533 176.04 339.18 178.07L339.789 179.975C346.525 177.823 355.719 171.728 365.677 163.86L364.438 162.291ZM395.047 135.385C385.102 144.801 374.348 154.462 364.438 162.291L365.677 163.86C375.654 155.979 386.457 146.272 396.422 136.837L395.047 135.385ZM420.735 110.024C414.104 116.822 404.988 125.972 395.047 135.385L396.422 136.837C406.388 127.401 415.524 118.231 422.167 111.42L420.735 110.024ZM428.607 101.855C426.743 103.815 424.05 106.625 420.735 110.024L422.167 111.42C425.488 108.015 428.187 105.199 430.056 103.234L428.607 101.855ZM429.001 101.441L428.607 101.856L430.057 103.234L430.45 102.819L429.001 101.441ZM417.213 82.4885C417.213 91.3016 422.064 98.9803 429.236 103.003L430.215 101.258C423.647 97.5753 419.213 90.5492 419.213 82.4885H417.213ZM440.716 58.9849C427.736 58.9849 417.213 69.5078 417.213 82.4885H419.213C419.213 70.6124 428.84 60.9849 440.716 60.9849V58.9849ZM464.22 82.4885C464.22 69.5078 453.697 58.9849 440.716 58.9849V60.9849C452.592 60.9849 462.22 70.6124 462.22 82.4885H464.22ZM440.716 105.992C453.697 105.992 464.22 95.4693 464.22 82.4885H462.22C462.22 94.3647 452.592 103.992 440.716 103.992V105.992ZM437 105.7C438.211 105.892 439.452 105.992 440.716 105.992V103.992C439.558 103.992 438.421 103.901 437.314 103.725L437 105.7ZM369.821 310.575L438.106 105.028L436.208 104.397L367.923 309.944L369.821 310.575ZM367.608 310.893L368.556 311.209L369.187 309.311L368.238 308.995L367.608 310.893ZM435.214 104.216L366.974 309.629L368.872 310.26L437.112 104.847L435.214 104.216ZM430.194 103.511C431.997 104.415 433.932 105.094 435.962 105.511L436.365 103.552C434.508 103.17 432.739 102.55 431.091 101.723L430.194 103.511ZM430.781 103.923C430.987 103.707 431.182 103.501 431.368 103.305L429.917 101.929C429.732 102.123 429.537 102.329 429.332 102.545L430.781 103.923ZM422.883 112.118C426.208 108.709 428.91 105.89 430.781 103.923L429.332 102.545C427.465 104.507 424.769 107.32 421.451 110.722L422.883 112.118ZM397.109 137.563C407.088 128.115 416.233 118.935 422.883 112.118L421.451 110.722C414.814 117.526 405.688 126.687 395.734 136.111L397.109 137.563ZM366.297 164.645C376.307 156.738 387.134 147.008 397.109 137.563L395.734 136.111C385.779 145.536 375.001 155.221 365.058 163.076L366.297 164.645ZM340.093 180.927C347.021 178.714 356.341 172.51 366.297 164.645L365.058 163.076C355.096 170.945 346.029 176.931 339.485 179.022L340.093 180.927ZM307.198 181.324C316.805 185.692 326.636 185.226 340.093 180.927L339.485 179.022C326.263 183.246 316.997 183.582 308.026 179.504L307.198 181.324ZM276.534 154.296C288.686 168.105 297.734 177.022 307.198 181.324L308.026 179.504C299.006 175.404 290.217 166.817 278.035 152.975L276.534 154.296ZM259.144 123.362C264.415 136.002 270.278 147.188 276.534 154.296L278.035 152.975C272.004 146.122 266.242 135.187 260.99 122.592L259.144 123.362ZM245.142 83.0413C249.116 96.4185 253.859 110.688 259.144 123.362L260.99 122.592C255.743 110.009 251.022 95.8126 247.059 82.4718L245.142 83.0413ZM235.739 47.984C237.956 57.1487 241.167 69.66 245.142 83.0413L247.059 82.4718C243.097 69.1324 239.895 56.6558 237.683 47.5137L235.739 47.984ZM235.059 45.1513C235.274 46.055 235.501 47.0003 235.739 47.984L237.683 47.5137C237.445 46.5326 237.22 45.5899 237.005 44.6887L235.059 45.1513ZM327.414 93.4475C336.783 93.2772 344.326 85.6291 344.326 76.2192H342.326C342.326 84.5367 335.659 91.2973 327.378 91.4478L327.414 93.4475ZM344.326 76.2192C344.326 66.7027 336.611 58.988 327.095 58.988V60.988C335.507 60.988 342.326 67.8073 342.326 76.2192H344.326ZM327.095 58.988C317.578 58.988 309.864 66.7027 309.864 76.2192H311.864C311.864 67.8073 318.683 60.988 327.095 60.988V58.988ZM309.864 76.2192C309.864 84.0749 315.12 90.7004 322.305 92.7757L322.86 90.8542C316.508 89.0195 311.864 83.1604 311.864 76.2192H309.864ZM321.716 91.3152C317.017 99.4594 309.392 112.591 302.478 124.112C299.021 129.873 295.746 135.225 293.105 139.348C291.785 141.41 290.628 143.156 289.689 144.49C288.729 145.853 288.052 146.705 287.679 147.049L289.035 148.519C289.589 148.008 290.383 146.979 291.324 145.641C292.287 144.273 293.462 142.499 294.789 140.426C297.445 136.279 300.732 130.908 304.193 125.141C311.115 113.605 318.748 100.462 323.449 92.3147L321.716 91.3152ZM287.679 147.049C287.093 147.589 286.914 148.345 286.92 149.057C286.927 149.772 287.116 150.575 287.421 151.413C288.035 153.095 289.197 155.136 290.768 157.304C293.918 161.649 298.834 166.669 304.728 170.567C310.617 174.462 317.562 177.288 324.748 177.109C331.979 176.928 339.319 173.707 345.939 165.765L344.402 164.484C338.11 172.034 331.292 174.945 324.699 175.109C318.061 175.275 311.517 172.659 305.831 168.899C300.15 165.141 295.405 160.293 292.387 156.13C290.875 154.044 289.827 152.172 289.301 150.728C289.036 150.002 288.924 149.439 288.92 149.04C288.917 148.638 289.02 148.532 289.035 148.519L287.679 147.049ZM346.108 164.775C337.138 140.681 330.008 109.846 328.392 92.3556L326.4 92.5397C328.036 110.236 335.214 141.245 344.233 165.473L346.108 164.775ZM141.099 92.565C147.935 90.28 152.864 83.8265 152.864 76.2192H150.864C150.864 82.9406 146.51 88.6476 140.465 90.6682L141.099 92.565ZM176.672 148.332C162.768 127.639 147.435 101.253 141.651 91.1208L139.914 92.1124C145.702 102.251 161.064 128.69 175.012 149.448L176.672 148.332ZM116.815 165.06C122.68 171.492 132.551 177.214 143.585 176.45C154.689 175.68 166.66 168.37 176.726 149.358L174.958 148.422C165.103 167.039 153.648 173.748 143.447 174.454C133.177 175.166 123.864 169.822 118.293 163.712L116.815 165.06ZM133.577 92.3011C132.456 101.981 130.453 117.273 127.612 131.469C126.19 138.568 124.563 145.373 122.738 151.056C120.902 156.774 118.902 161.233 116.789 163.742L118.319 165.03C120.702 162.201 122.796 157.417 124.642 151.668C126.5 145.884 128.144 138.998 129.573 131.862C132.43 117.587 134.44 102.232 135.564 92.5312L133.577 92.3011ZM118.402 76.2192C118.402 85.3571 125.514 92.833 134.506 93.4141L134.635 91.4182C126.689 90.9048 120.402 84.2958 120.402 76.2192H118.402ZM135.633 58.988C126.117 58.988 118.402 66.7027 118.402 76.2192H120.402C120.402 67.8073 127.221 60.988 135.633 60.988V58.988ZM152.864 76.2192C152.864 66.7027 145.15 58.988 135.633 58.988V60.988C144.045 60.988 150.864 67.8073 150.864 76.2192H152.864Z" fill="url(#paint0_linear_385_46)" mask="url(#path-1-inside-1_385_46)"/>
<defs>
<linearGradient id="paint0_linear_385_46" x1="231.732" y1="0.223389" x2="231.732" y2="310.261" gradientUnits="userSpaceOnUse">
<stop stop-color="#FC56FF"/>
<stop offset="1" stop-color="#AE3C30"/>
</linearGradient>
</defs>
</svg>
