<svg width="33" height="32" viewBox="0 0 21 16" fill="none" xmlns="http://www.w3.org/2000/svg">
<path d="M13.6978 10.9969C12.7568 10.9969 11.984 10.0974 11.984 9.00278C11.984 7.90817 12.7407 7.0153 13.6978 7.0153C14.6549 7.0153 15.4294 7.91479 15.4132 9.01105C15.397 10.1073 14.6565 10.9969 13.6978 10.9969ZM7.36166 10.9969C6.41908 10.9969 5.64626 10.0974 5.64626 9.00278C5.64626 7.90817 6.40291 7.0153 7.36166 7.0153C8.32041 7.0153 9.09322 7.90652 9.07706 8.99947C9.06089 10.0924 8.32041 10.9969 7.36166 10.9969ZM17.1512 1.96889C15.9004 1.37007 14.5769 0.944676 13.216 0.703979C13.0298 1.05136 12.8614 1.40845 12.7116 1.77378C11.2648 1.54856 9.79304 1.54856 8.34628 1.77378C8.19547 1.40806 8.02546 1.05094 7.83699 0.703979C6.47649 0.945173 5.15359 1.37113 3.90337 1.97054C1.41354 5.81984 0.737727 9.57653 1.07563 13.2737C2.52948 14.3952 4.16231 15.2505 5.90171 15.8019C6.29342 15.252 6.63954 14.6696 6.93645 14.0608C6.37084 13.8417 5.8259 13.5706 5.30835 13.2506C5.44416 13.148 5.57835 13.0389 5.7077 12.9199C7.21274 13.661 8.86172 14.0459 10.5322 14.0459C12.2026 14.0459 13.8516 13.661 15.3566 12.9199C15.4876 13.0306 15.6201 13.1398 15.756 13.2506C15.2373 13.5711 14.6913 13.8429 14.1246 14.0624C14.4213 14.671 14.7669 15.2534 15.1577 15.8035C16.8989 15.2534 18.5331 14.3973 19.9871 13.2737C20.3816 8.98459 19.3096 5.26592 17.1512 1.96889Z" fill="#FC56FF"/>
</svg>
