<svg width="53" height="53" viewBox="0 0 53 53" fill="none" xmlns="http://www.w3.org/2000/svg">
<g clip-path="url(#clip0_385_462)">
<path d="M26.6644 0.954102C12.9827 0.954102 1.77226 11.4924 0.707031 24.8717L14.6913 30.6299C15.9102 29.7992 17.3571 29.3579 18.8371 29.3653C18.9778 29.3653 19.1141 29.3653 19.2632 29.3653L25.4714 20.3824V20.256C25.489 18.3372 26.0806 16.4667 27.1714 14.8801C28.2622 13.2935 29.8035 12.0619 31.6008 11.3407C33.3981 10.6195 35.3711 10.4409 37.2709 10.8274C39.1707 11.214 40.9123 12.1484 42.276 13.5128C43.6398 14.8772 44.5646 16.6105 44.934 18.4942C45.3033 20.3779 45.1006 22.3276 44.3515 24.0975C43.6023 25.8674 42.3402 27.3782 40.7243 28.4395C39.1083 29.5007 37.211 30.0649 35.2714 30.0608H35.0456L26.1957 36.3627C26.1957 36.4765 26.1957 36.5945 26.1957 36.7083C26.2097 38.5247 25.5375 40.2808 24.311 41.6325C23.0844 42.9842 21.3918 43.834 19.5649 44.0155C17.7379 44.197 15.9084 43.697 14.4346 42.6136C12.9609 41.5301 11.9492 39.9413 11.5979 38.1584L1.6146 34.04C3.1337 39.4655 6.4048 44.2506 10.929 47.6655C15.4532 51.0803 20.9823 52.9376 26.6729 52.9541C41.0577 52.9541 52.7198 41.3114 52.7198 26.9541C52.7198 12.5968 41.0492 0.954102 26.6644 0.954102Z" fill="white"/>
<path d="M17.0308 40.409L13.8394 39.0896C14.2944 40.0485 15.0223 40.8553 15.9338 41.4112C16.8453 41.9671 17.9009 42.2479 18.9713 42.2192C20.0417 42.1906 21.0805 41.8538 21.9603 41.25C22.8401 40.6462 23.5229 39.8017 23.9249 38.8198C24.4869 37.4697 24.4869 35.9546 23.9249 34.6045C23.6517 33.9353 23.2476 33.326 22.7358 32.8116C22.2239 32.2973 21.6144 31.8881 20.9423 31.6074C19.6425 31.0651 18.1809 31.0424 16.8646 31.5442L20.1668 32.91C21.1653 33.3304 21.9558 34.1236 22.3666 35.1173C22.7775 36.1109 22.7755 37.2248 22.3611 38.217C22.1589 38.7085 21.8603 39.1554 21.4824 39.532C21.1046 39.9087 20.6551 40.2075 20.1599 40.4113C19.6647 40.6151 19.1336 40.7198 18.5972 40.7194C18.0609 40.719 17.5299 40.6135 17.035 40.409" fill="white"/>
<path d="M30.3502 20.2433C30.3586 19.2831 30.6542 18.3468 31.1995 17.5524C31.7449 16.758 32.5158 16.141 33.4149 15.7793C34.3141 15.4176 35.3014 15.3273 36.2524 15.5197C37.2034 15.7121 38.0756 16.1787 38.759 16.8607C39.4424 17.5426 39.9065 18.4094 40.0928 19.3519C40.2791 20.2943 40.1792 21.2702 39.8059 22.1566C39.4325 23.043 38.8023 23.8003 37.9946 24.333C37.1869 24.8657 36.238 25.1499 35.2673 25.15C34.6188 25.1472 33.9771 25.0181 33.3791 24.77C32.781 24.5219 32.2382 24.1597 31.7816 23.7041C31.325 23.2485 30.9636 22.7084 30.718 22.1146C30.4724 21.5208 30.3474 20.8849 30.3502 20.2433ZM41.8035 20.2433C41.7917 18.9653 41.3979 17.7194 40.6716 16.6624C39.9454 15.6054 38.9192 14.7847 37.7223 14.3037C36.5254 13.8227 35.2114 13.7029 33.9458 13.9593C32.6802 14.2158 31.5196 14.8371 30.6103 15.7449C29.7009 16.6527 29.0835 17.8064 28.8358 19.0607C28.588 20.3151 28.7211 21.6139 29.2181 22.7936C29.7152 23.9732 30.554 24.981 31.629 25.6898C32.7039 26.3987 33.9669 26.777 35.2588 26.7771C37.0018 26.767 38.6696 26.0736 39.8965 24.8487C41.1234 23.6239 41.8092 21.9677 41.8035 20.2433Z" fill="white"/>
</g>
<defs>
<clipPath id="clip0_385_462">
<rect width="52" height="52" fill="white" transform="translate(0.707031 0.954102)"/>
</clipPath>
</defs>
</svg>
