<svg width="78" height="78" viewBox="0 0 78 78" fill="none" xmlns="http://www.w3.org/2000/svg">
<path fill-rule="evenodd" clip-rule="evenodd" d="M74.629 0.423068C75.2051 0.540943 75.7339 0.824854 76.1496 1.23989C76.5668 1.65493 76.8534 2.18253 76.9719 2.75871C77.0912 3.33487 77.0382 3.93337 76.8206 4.47955L48.5009 75.2188C48.2896 75.7525 47.9289 76.2142 47.463 76.5491C46.997 76.8846 46.4439 77.0785 45.8712 77.1085H45.7107C45.1653 77.1085 44.6302 76.9592 44.1636 76.6767C43.6969 76.3949 43.3154 75.991 43.0608 75.509L28.8308 48.5697L1.88076 34.3392C1.20135 33.9806 0.685171 33.3752 0.438939 32.6476C0.1927 31.92 0.235254 31.1255 0.557522 30.428C0.879772 29.7311 1.45664 29.1836 2.17023 28.8997L72.9095 0.580016C73.455 0.360289 74.0528 0.305881 74.629 0.423068ZM65.6868 15.6141C66.6589 14.6335 66.6519 13.0506 65.6713 12.0786C64.6908 11.1066 63.1079 11.1135 62.1358 12.0941L37.2257 37.2235C36.2537 38.2041 36.2607 39.787 37.2412 40.759C38.2218 41.731 39.8047 41.7241 40.7767 40.7435L65.6868 15.6141Z" fill="#FC56FF"/>
</svg>
