<svg width="5" height="37" viewBox="0 0 5 37" fill="none" xmlns="http://www.w3.org/2000/svg">
<path opacity="0.4" fill-rule="evenodd" clip-rule="evenodd" d="M1.25068 3.08231L0.543578 2.3752L1.25068 1.6681L2.06454 0.85424L2.77165 0.147133L3.47875 0.85424L4.29261 1.6681L4.99972 2.3752L4.29261 3.08231L3.47875 3.89617L3.32865 4.04621L3.32865 4.04627L3.32865 32.4541L3.32863 32.4541L3.47877 32.6042L4.29263 33.4181L4.99974 34.1252L4.29263 34.8323L3.47877 35.6462L2.77167 36.3533L2.06456 35.6462L1.2507 34.8323L0.543595 34.1252L1.2507 33.4181L2.06456 32.6042L2.2147 32.4541L2.21462 32.4541L2.21461 4.04621L2.06454 3.89617L1.25068 3.08231ZM2.77165 3.18906L3.5855 2.3752L2.77165 1.56135L1.95779 2.3752L2.77165 3.18906ZM2.77167 34.9391L3.58552 34.1252L2.77167 33.3113L1.95781 34.1252L2.77167 34.9391Z" fill="url(#paint0_linear_385_39)"/>
<defs>
<linearGradient id="paint0_linear_385_39" x1="0.543578" y1="18.2502" x2="4.99972" y2="18.2502" gradientUnits="userSpaceOnUse">
<stop stop-color="#EF8A01" stop-opacity="0.7"/>
<stop offset="1" stop-color="#AE3C30"/>
</linearGradient>
</defs>
</svg>
